<?xml version="1.0" encoding="UTF-8" standalone="no"?>
<!-- Generator: Adobe Illustrator 24.0.3, SVG Export Plug-In . SVG Version: 6.00 Build 0)  -->

<svg
   version="1.1"
   id="Layer_1"
   x="0px"
   y="0px"
   viewBox="0 0 138.60001 119.6"
   xml:space="preserve"
   sodipodi:docname="knime-icon.svg"
   inkscape:version="1.1.1 (c3084ef, 2021-09-22)"
   width="138.60001"
   height="119.6"
   xmlns:inkscape="http://www.inkscape.org/namespaces/inkscape"
   xmlns:sodipodi="http://sodipodi.sourceforge.net/DTD/sodipodi-0.dtd"
   xmlns="http://www.w3.org/2000/svg"
   xmlns:svg="http://www.w3.org/2000/svg"
   xmlns:rdf="http://www.w3.org/1999/02/22-rdf-syntax-ns#"
   xmlns:cc="http://creativecommons.org/ns#"
   xmlns:dc="http://purl.org/dc/elements/1.1/"><defs
   id="defs55" /><sodipodi:namedview
   id="namedview53"
   pagecolor="#ffffff"
   bordercolor="#666666"
   borderopacity="1.0"
   inkscape:pageshadow="2"
   inkscape:pageopacity="0.0"
   inkscape:pagecheckerboard="0"
   showgrid="false"
   inkscape:zoom="2.4548028"
   inkscape:cx="229.55"
   inkscape:cy="59.882609"
   inkscape:window-width="1340"
   inkscape:window-height="920"
   inkscape:window-x="586"
   inkscape:window-y="226"
   inkscape:window-maximized="0"
   inkscape:current-layer="Layer_1"
   inkscape:snap-page="false"
   width="138.6px" />
<style
   type="text/css"
   id="style2">
	.st0{fill:#FFD800;}
	.st1{fill:#3E3A39;}
</style>
<title
   id="title4">KNIME_Logo_CB_NT</title>
<path
   class="st0"
   d="M 69.1,0 0,119.6 H 138.1 Z M 53.3,105.3 V 59.7 l 1.4,-6.3 39.5,22.8 4.8,4.4 -39.5,22.8 z m 2,-54.6 1.9,-8.6 28.2,26 z m -4.6,55.4 -8.4,2.6 8.4,-37.4 c 0,0 0,34.8 0,34.8 z m 50.4,-23.7 6.5,5.9 -36.7,11.5 z m -42.6,-43.6 2.7,-7.2 32,39.1 z m -19.6,70.6 -7.6,1.3 17.9,-47.4 z m 71,-18.4 4.8,5.9 -49.9,8.2 z M 62.3,26.8 65.1,21 99.3,72 Z m -35.7,85.3 -6.4,0.4 27.1,-55.1 z m 91.7,-11.8 3.6,5.3 -61.3,4.1 z M 103.5,70.1 66.5,14.9 69.1,10.4 Z M 43.5,54.7 14.2,114.4 H 9 Z m 16.6,59.7 66.4,-4.5 2.6,4.5 z"
   id="path6" />






















<metadata
   id="metadata1395"><rdf:RDF><cc:Work
       rdf:about=""><dc:title>KNIME_Logo_CB_NT</dc:title></cc:Work></rdf:RDF></metadata></svg>
